<?xml version="1.0" standalone="no"?>
<!DOCTYPE svg PUBLIC "-//W3C//DTD SVG 20010904//EN"
 "http://www.w3.org/TR/2001/REC-SVG-20010904/DTD/svg10.dtd">
<svg version="1.0" xmlns="http://www.w3.org/2000/svg"
 width="1080.000000pt" height="1080.000000pt" viewBox="0 0 1080.000000 1080.000000"
 preserveAspectRatio="xMidYMid meet">

<g transform="translate(0.000000,1080.000000) scale(0.100000,-0.100000)"
fill="#000000" stroke="none">
<path d="M2665 7117 c-80 -27 -113 -53 -276 -216 -193 -194 -212 -223 -217
-346 -2 -44 1 -93 8 -109 l11 -30 242 241 c133 132 252 246 264 252 30 15 69
14 101 -3 45 -24 141 -129 152 -166 20 -70 7 -88 -250 -345 -132 -132 -240
-243 -240 -246 0 -14 105 -31 159 -26 100 9 141 36 324 216 203 200 230 244
231 369 0 113 -23 158 -143 276 -64 62 -115 103 -147 117 -59 27 -163 34 -219
16z"/>
<path d="M1897 7108 c-28 -8 -36 -14 -33 -27 3 -9 20 -74 37 -145 l32 -128 41
6 c22 4 42 9 45 12 8 8 -64 287 -74 290 -6 1 -27 -3 -48 -8z"/>
<path d="M1535 6900 l-29 -31 107 -106 107 -107 35 34 35 34 -102 103 c-57 57
-108 103 -113 103 -6 0 -24 -14 -40 -30z"/>
<path d="M1356 6568 c-3 -18 -6 -37 -7 -42 0 -6 65 -29 145 -51 l144 -42 11
41 c5 22 7 44 3 47 -9 8 -256 79 -275 79 -9 0 -17 -14 -21 -32z"/>
<path d="M1831 6259 c-90 -18 -132 -48 -303 -219 -198 -197 -222 -235 -223
-360 0 -109 31 -169 143 -280 115 -113 159 -135 277 -135 133 0 155 13 352
207 91 90 177 183 191 207 35 60 52 144 41 210 -17 107 3 118 -268 -153 -259
-259 -279 -273 -343 -255 -46 12 -167 136 -177 180 -15 66 -2 84 249 334 132
132 240 243 240 247 0 16 -124 28 -179 17z"/>
<path d="M2826 6002 c-2 -4 -8 -24 -14 -44 -9 -32 -8 -38 6 -42 10 -3 71 -19
137 -37 65 -17 124 -33 130 -36 9 -3 35 56 35 80 0 4 -24 13 -52 21 -163 46
-238 64 -242 58z"/>
<path d="M2684 5759 l-29 -31 110 -103 110 -104 33 32 33 32 -104 102 c-57 57
-108 103 -114 103 -5 0 -22 -14 -39 -31z"/>
<path d="M2484 5653 l-21 -4 30 -147 c17 -81 31 -148 32 -150 2 -2 23 2 47 8
l45 12 -28 136 c-16 76 -29 140 -29 145 0 7 -39 8 -76 0z"/>
</g>
</svg>
